<svg width="223" height="176" viewBox="0 0 223 176" fill="none" xmlns="http://www.w3.org/2000/svg">
<path d="M0.133205 95.6366C2.4623 91.8128 9.01738 84.9275 16.0287 84.1649C19.2222 83.8173 21.9354 84.0753 24.2285 84.8266C24.8768 85.0396 25.5612 84.7032 25.7412 84.0753C26.2575 82.2811 27.2059 80.4195 28.6466 78.4908C32.6445 73.1642 42.1169 71.0897 46.7631 71C47.0993 71 47.4114 71.1458 47.6395 71.3813C48.2878 72.0317 48.0477 73.097 47.2433 73.5791L47.1473 73.6353C43.7257 75.6874 40.6883 78.3226 38.1311 81.4288C37.6388 82.0231 38.1911 82.8754 38.9955 82.7408C38.9955 82.7408 38.9955 82.7408 39.0075 82.7408C45.6826 81.7092 54.975 85.3872 59.297 87.9664C59.5131 88.0898 59.6812 88.2692 59.8132 88.4598C60.4015 89.3793 59.5131 90.5344 58.3606 90.4335C50.737 89.7831 43.4015 91.2745 36.9785 94.7059C36.3662 95.0311 36.1981 95.7936 36.6063 96.3207C41.4806 102.511 42.8493 111.908 41.0724 118.916C39.5477 124.49 30.8316 124.333 29.6071 118.602C29.3549 117.425 29.2709 116.225 29.3429 115.025C29.6191 109.856 30.2554 104.484 29.1268 99.4605C28.9708 98.7653 28.1904 98.3616 27.4821 98.6307C19.7144 101.524 13.3634 106.716 9.19747 113.724C8.59718 114.722 7.00043 114.621 6.60424 113.545C6.54422 113.377 6.50821 113.197 6.52021 113.007C6.68829 108.308 8.6212 99.3372 13.0993 94.6947C13.4955 94.291 13.0993 93.6518 12.535 93.7639C8.95736 94.4592 5.57176 95.6142 2.45029 97.2178L2.29423 97.2963C1.44183 97.7336 0.337303 97.3635 0.0611763 96.5001C-0.0348701 96.1973 -0.0228653 95.8833 0.133205 95.6142V95.6366Z" fill="#46CD8F"/>
<path fill-rule="evenodd" clip-rule="evenodd" d="M122.573 125.967C105.021 113.754 85.9905 118.89 78.0469 131.245L67.9531 124.755C80.0095 106.003 106.979 100.497 129.427 116.117L122.573 125.967Z" fill="#41248F"/>
<path d="M104 166C65.3809 177.262 44.2621 175.964 7.00027 166C7.00027 166 6.8296 144.8 15.0461 130.706C24.5309 114.437 59.3864 115.559 74.0508 119.425C100.446 126.384 104 166 104 166Z" fill="#FFEE80"/>
<path d="M223 166C179.989 178.613 155.334 176.312 111 166C111 166 110.803 108.889 120.29 70.9232C131.242 27.0964 171.487 30.1179 188.419 40.5325C218.896 59.2782 223 166 223 166Z" fill="#FFEE80"/>
</svg>
